<svg width="375" height="134" viewBox="0 0 375 134" fill="none" xmlns="http://www.w3.org/2000/svg">
<path d="M139.35 46.6C144.043 46.6 148.223 47.5167 151.89 49.35C155.63 51.1833 158.563 54.0067 160.69 57.82C162.817 61.56 163.88 66.4 163.88 72.34V106H150.13V74.1C150.13 68.8933 148.883 65.0067 146.39 62.44C143.97 59.8733 140.56 58.59 136.16 58.59C132.933 58.59 130.073 59.25 127.58 60.57C125.087 61.89 123.143 63.87 121.75 66.51C120.43 69.0767 119.77 72.34 119.77 76.3V106H106.02V24.38H119.77V63.1L116.8 58.26C118.853 54.52 121.823 51.66 125.71 49.68C129.67 47.6267 134.217 46.6 139.35 46.6ZM209.04 106.77C202.513 106.77 196.793 105.487 191.88 102.92C187.04 100.28 183.263 96.6867 180.55 92.14C177.91 87.5933 176.59 82.4233 176.59 76.63C176.59 70.7633 177.873 65.5933 180.44 61.12C183.08 56.5733 186.673 53.0167 191.22 50.45C195.84 47.8833 201.083 46.6 206.95 46.6C212.67 46.6 217.767 47.8467 222.24 50.34C226.713 52.8333 230.233 56.3533 232.8 60.9C235.367 65.4467 236.65 70.8 236.65 76.96C236.65 77.5467 236.613 78.2067 236.54 78.94C236.54 79.6733 236.503 80.37 236.43 81.03H187.48V71.9H229.17L223.78 74.76C223.853 71.3867 223.157 68.4167 221.69 65.85C220.223 63.2833 218.207 61.2667 215.64 59.8C213.147 58.3333 210.25 57.6 206.95 57.6C203.577 57.6 200.607 58.3333 198.04 59.8C195.547 61.2667 193.567 63.32 192.1 65.96C190.707 68.5267 190.01 71.57 190.01 75.09V77.29C190.01 80.81 190.817 83.9267 192.43 86.64C194.043 89.3533 196.317 91.4433 199.25 92.91C202.183 94.3767 205.557 95.11 209.37 95.11C212.67 95.11 215.64 94.5967 218.28 93.57C220.92 92.5433 223.267 90.93 225.32 88.73L232.69 97.2C230.05 100.28 226.713 102.663 222.68 104.35C218.72 105.963 214.173 106.77 209.04 106.77ZM276.808 106.77C270.648 106.77 265.148 105.487 260.308 102.92C255.541 100.28 251.801 96.6867 249.088 92.14C246.375 87.5933 245.018 82.4233 245.018 76.63C245.018 70.7633 246.375 65.5933 249.088 61.12C251.801 56.5733 255.541 53.0167 260.308 50.45C265.148 47.8833 270.648 46.6 276.808 46.6C282.528 46.6 287.551 47.7733 291.878 50.12C296.278 52.3933 299.615 55.7667 301.888 60.24L291.328 66.4C289.568 63.6133 287.405 61.56 284.838 60.24C282.345 58.92 279.631 58.26 276.698 58.26C273.325 58.26 270.281 58.9933 267.568 60.46C264.855 61.9267 262.728 64.0533 261.188 66.84C259.648 69.5533 258.878 72.8167 258.878 76.63C258.878 80.4433 259.648 83.7433 261.188 86.53C262.728 89.2433 264.855 91.3333 267.568 92.8C270.281 94.2667 273.325 95 276.698 95C279.631 95 282.345 94.34 284.838 93.02C287.405 91.7 289.568 89.6467 291.328 86.86L301.888 93.02C299.615 97.42 296.278 100.83 291.878 103.25C287.551 105.597 282.528 106.77 276.808 106.77ZM324.457 92.91L324.787 75.64L355.477 47.26H371.977L345.907 73.44L338.647 79.49L324.457 92.91ZM313.237 106V24.38H326.987V106H313.237ZM357.567 106L336.117 79.49L344.807 68.49L374.287 106H357.567Z" fill="#34344E"/>
<mask id="path-2-inside-1_1_18" fill="white">
<path d="M94.0762 88.6069C89.1083 97.8825 81.3407 105.354 71.8793 109.959C62.418 114.563 51.7452 116.065 41.3805 114.251C31.0158 112.438 21.4875 107.4 14.1523 99.856C6.81702 92.312 2.04869 82.6462 0.526182 72.2347C-0.996328 61.8232 0.804591 51.1968 5.67253 41.8683C10.5405 32.5398 18.2273 24.9848 27.6386 20.279C37.0499 15.5732 47.7059 13.9563 58.0895 15.6587C68.4731 17.3611 78.055 22.296 85.4709 29.7606L75.143 40.0211C69.8863 34.7299 63.0943 31.232 55.7341 30.0253C48.3739 28.8186 40.8205 29.9646 34.1495 33.3003C27.4784 36.6359 22.0298 41.9911 18.5792 48.6035C15.1286 55.2158 13.8521 62.7482 14.9313 70.1282C16.0105 77.5082 19.3905 84.3597 24.5899 89.7071C29.7894 95.0545 36.5434 98.6253 43.8902 99.9111C51.2371 101.197 58.8023 100.132 65.5088 96.8683C72.2153 93.6046 77.7212 88.3082 81.2427 81.7334L94.0762 88.6069Z"/>
</mask>
<path d="M94.0762 88.6069C89.1083 97.8825 81.3407 105.354 71.8793 109.959C62.418 114.563 51.7452 116.065 41.3805 114.251C31.0158 112.438 21.4875 107.4 14.1523 99.856C6.81702 92.312 2.04869 82.6462 0.526182 72.2347C-0.996328 61.8232 0.804591 51.1968 5.67253 41.8683C10.5405 32.5398 18.2273 24.9848 27.6386 20.279C37.0499 15.5732 47.7059 13.9563 58.0895 15.6587C68.4731 17.3611 78.055 22.296 85.4709 29.7606L75.143 40.0211C69.8863 34.7299 63.0943 31.232 55.7341 30.0253C48.3739 28.8186 40.8205 29.9646 34.1495 33.3003C27.4784 36.6359 22.0298 41.9911 18.5792 48.6035C15.1286 55.2158 13.8521 62.7482 14.9313 70.1282C16.0105 77.5082 19.3905 84.3597 24.5899 89.7071C29.7894 95.0545 36.5434 98.6253 43.8902 99.9111C51.2371 101.197 58.8023 100.132 65.5088 96.8683C72.2153 93.6046 77.7212 88.3082 81.2427 81.7334L94.0762 88.6069Z" stroke="#34344E" stroke-width="30" mask="url(#path-2-inside-1_1_18)"/>
<path d="M52.4 74.9858L36.3071 58.8929L35.6 58.1858L34.8929 58.8929L29.2929 64.4929L28.5858 65.2L29.2929 65.9071L51.6929 88.3071L52.4 89.0142L53.1071 88.3071L101.107 40.3071L101.814 39.6L101.107 38.8929L95.5071 33.2929L94.8 32.5858L94.0929 33.2929L52.4 74.9858Z" fill="#89A7B1" stroke="#89A7B1" stroke-width="2"/>
</svg>
