<svg width="390" height="105" viewBox="0 0 390 105" fill="none" xmlns="http://www.w3.org/2000/svg">
<path d="M145.2 32.9266C150.091 32.9266 154.446 33.8818 158.267 35.7921C162.164 37.7024 165.22 40.6442 167.436 44.6177C169.652 48.5147 170.76 53.5579 170.76 59.7472V94.8203H156.433V61.5811C156.433 56.1559 155.134 52.106 152.536 49.4316C150.014 46.7572 146.461 45.42 141.876 45.42C138.514 45.42 135.534 46.1077 132.936 47.4831C130.338 48.8585 128.313 50.9216 126.861 53.6725C125.486 56.3469 124.798 59.7472 124.798 63.8735V94.8203H110.471V9.77379H124.798V50.1193L121.703 45.0761C123.843 41.1791 126.938 38.199 130.988 36.1359C135.114 33.9964 139.851 32.9266 145.2 32.9266Z" fill="white"/>
<path d="M217.816 95.6227C211.015 95.6227 205.055 94.2854 199.936 91.611C194.892 88.8602 190.957 85.116 188.13 80.3785C185.379 75.6409 184.004 70.2539 184.004 64.2173C184.004 58.1044 185.341 52.7173 188.015 48.0562C190.766 43.3187 194.51 39.6127 199.248 36.9383C204.062 34.2638 209.525 32.9266 215.638 32.9266C221.598 32.9266 226.909 34.2256 231.57 36.8236C236.231 39.4216 239.899 43.0894 242.573 47.827C245.248 52.5645 246.585 58.1426 246.585 64.5612C246.585 65.1725 246.547 65.8602 246.471 66.6243C246.471 67.3884 246.432 68.1143 246.356 68.802H195.351V59.2888H238.791L233.175 62.2688C233.251 58.7539 232.525 55.6592 230.997 52.9848C229.469 50.3103 227.368 48.209 224.693 46.6808C222.095 45.1525 219.077 44.3884 215.638 44.3884C212.123 44.3884 209.029 45.1525 206.354 46.6808C203.756 48.209 201.693 50.3486 200.165 53.0994C198.713 55.7738 197.987 58.9449 197.987 62.6127V64.905C197.987 68.5728 198.828 71.8203 200.509 74.6476C202.19 77.4748 204.559 79.6525 207.615 81.1808C210.672 82.709 214.186 83.4731 218.16 83.4731C221.598 83.4731 224.693 82.9383 227.444 81.8685C230.195 80.7987 232.64 79.1177 234.779 76.8253L242.459 85.6509C239.708 88.8602 236.231 91.3436 232.029 93.1011C227.902 94.7821 223.165 95.6227 217.816 95.6227Z" fill="white"/>
<path d="M288.429 95.6227C282.01 95.6227 276.279 94.2854 271.236 91.611C266.269 88.8602 262.372 85.116 259.545 80.3785C256.718 75.6409 255.304 70.2539 255.304 64.2173C255.304 58.1044 256.718 52.7173 259.545 48.0562C262.372 43.3187 266.269 39.6127 271.236 36.9383C276.279 34.2638 282.01 32.9266 288.429 32.9266C294.389 32.9266 299.623 34.1492 304.131 36.5944C308.716 38.9632 312.193 42.4781 314.562 47.1392L303.558 53.5579C301.724 50.6542 299.47 48.5147 296.796 47.1392C294.198 45.7638 291.371 45.0761 288.314 45.0761C284.799 45.0761 281.628 45.8402 278.801 47.3685C275.974 48.8967 273.758 51.1127 272.153 54.0163C270.548 56.8436 269.746 60.2439 269.746 64.2173C269.746 68.1908 270.548 71.6293 272.153 74.5329C273.758 77.3602 275.974 79.5379 278.801 81.0662C281.628 82.5944 284.799 83.3585 288.314 83.3585C291.371 83.3585 294.198 82.6708 296.796 81.2954C299.47 79.92 301.724 77.7805 303.558 74.8768L314.562 81.2954C312.193 85.8801 308.716 89.4333 304.131 91.9549C299.623 94.4001 294.389 95.6227 288.429 95.6227Z" fill="white"/>
<path d="M338.078 81.1808L338.422 63.1858L370.4 33.6143H387.593L360.429 60.8934L352.864 67.1974L338.078 81.1808ZM326.387 94.8203V9.77379H340.714V94.8203H326.387ZM372.578 94.8203L350.228 67.1974L359.282 55.7356L390 94.8203H372.578Z" fill="white"/>
<mask id="path-2-inside-1_1_17" fill="white">
<path d="M98.0257 76.6971C92.8492 86.3621 84.7555 94.1477 74.8969 98.9453C65.0384 103.743 53.9175 105.308 43.1177 103.418C32.3179 101.528 22.3896 96.2791 14.7464 88.4184C7.10321 80.5577 2.1347 70.4861 0.548272 59.6375C-1.03816 48.7889 0.838369 37.7164 5.91067 27.9963C10.983 18.2762 18.9925 10.404 28.7989 5.50063C38.6053 0.597232 49.7087 -1.08747 60.5282 0.686394C71.3477 2.46025 81.3319 7.60225 89.0591 15.3803L78.2976 26.0716C72.8202 20.5582 65.7432 16.9134 58.0739 15.656C50.4047 14.3987 42.5342 15.5928 35.5831 19.0685C28.632 22.5442 22.9546 28.1243 19.3592 35.0142C15.7638 41.9041 14.4336 49.7527 15.5581 57.4426C16.6827 65.1324 20.2045 72.2715 25.6223 77.8434C31.04 83.4153 38.0775 87.136 45.7328 88.4758C53.3881 89.8155 61.2709 88.706 68.259 85.3053C75.247 81.9045 80.9841 76.3858 84.6534 69.535L98.0257 76.6971Z"/>
</mask>
<path d="M98.0257 76.6971C92.8492 86.3621 84.7555 94.1477 74.8969 98.9453C65.0384 103.743 53.9175 105.308 43.1177 103.418C32.3179 101.528 22.3896 96.2791 14.7464 88.4184C7.10321 80.5577 2.1347 70.4861 0.548272 59.6375C-1.03816 48.7889 0.838369 37.7164 5.91067 27.9963C10.983 18.2762 18.9925 10.404 28.7989 5.50063C38.6053 0.597232 49.7087 -1.08747 60.5282 0.686394C71.3477 2.46025 81.3319 7.60225 89.0591 15.3803L78.2976 26.0716C72.8202 20.5582 65.7432 16.9134 58.0739 15.656C50.4047 14.3987 42.5342 15.5928 35.5831 19.0685C28.632 22.5442 22.9546 28.1243 19.3592 35.0142C15.7638 41.9041 14.4336 49.7527 15.5581 57.4426C16.6827 65.1324 20.2045 72.2715 25.6223 77.8434C31.04 83.4153 38.0775 87.136 45.7328 88.4758C53.3881 89.8155 61.2709 88.706 68.259 85.3053C75.247 81.9045 80.9841 76.3858 84.6534 69.535L98.0257 76.6971Z" stroke="white" stroke-width="30" mask="url(#path-2-inside-1_1_17)"/>
<path d="M54.5998 62.5635L37.8016 45.7653L37.0945 45.0582L36.3874 45.7653L30.5523 51.6004L29.8452 52.3075L30.5523 53.0146L53.8927 76.355L54.5998 77.0621L55.3069 76.355L105.322 26.3398L106.029 25.6327L105.322 24.9256L99.487 19.0905L98.7799 18.3834L98.0727 19.0905L54.5998 62.5635Z" fill="#89A7B1" stroke="#89A7B1" stroke-width="2"/>
</svg>
